inDegrees=yes
name=ik_S46_A06_T01
DataType=double
version=3
OpenSimVersion=4.3-2021-08-27-4bc7ad9
endheader
time	pelvis_tilt	pelvis_list	pelvis_rotation	pelvis_tx	pelvis_ty	pelvis_tz	hip_flexion_r	hip_adduction_r	hip_rotation_r	knee_angle_r	knee_angle_r_beta	ankle_angle_r	subtalar_angle_r	mtp_angle_r	hip_flexion_l	hip_adduction_l	hip_rotation_l	knee_angle_l	knee_angle_l_beta	ankle_angle_l	subtalar_angle_l	mtp_angle_l	lumbar_extension	lumbar_bending	lumbar_rotation	arm_flex_r	arm_add_r	arm_rot_r	elbow_flex_r	pro_sup_r	wrist_flex_r	wrist_dev_r	arm_flex_l	arm_add_l	arm_rot_l	elbow_flex_l	pro_sup_l	wrist_flex_l	wrist_dev_l
12.77999999999982	-10.62069945684687	-1.619177304172435	22.92862515788008	0	0.9399999999999999	0	46.14269531602319	-9.968918088528991	-10.33568623525611	53.66060704516252	0.9365542715569515	0	0	0	46.14269531602319	-9.968918088528991	-10.33568623525611	53.66060704516252	0.9365542715569515	0	0	0	-9.349671538345616	-0.1329036442228635	4.805980527601433	16.97836594358764	-7.503297355475008	4.827176535782902	66.54107796552476	134.0487971571322	0	0	66.66390962334698	16.84839104076433	19.8184582502739	44.45570854309072	84.50220891358634	0	0
12.79999999999982	-10.62982383336756	-1.617169057941705	22.91343834258337	0	0.9399999999999999	0	46.14238546241501	-9.968947372223685	-10.33548301327295	53.66085145880944	0.9365585373798271	0	0	0	46.14238546241501	-9.968947372223685	-10.33548301327295	53.66085145880944	0.9365585373798271	0	0	0	-9.357044231224075	-0.1309079909426591	4.828409107671084	16.95361596530775	-7.48278693016069	4.833348538076456	66.58614356667165	134.0318511103215	0	0	66.70834069061429	16.93416429401028	19.94858097974822	44.23636504996521	84.59955826904152	0	0
12.81999999999982	-10.65379989231717	-1.602441642127788	22.88445739075938	0	0.9399999999999999	0	46.14204099946717	-9.968979855065401	-10.33525739207975	53.66112355859831	0.9365632864170367	0	0	0	46.14204099946717	-9.968979855065401	-10.33525739207975	53.66112355859831	0.9365632864170367	0	0	0	-9.373165694557965	-0.1123236825983891	4.85779543074059	16.93512732347095	-7.498707546629432	4.83561537043218	66.64301688343231	134.0204366300848	0	0	66.78230547708361	17.03510377697429	20.01654644539371	44.09064759955269	85.06736512457761	0	0
12.83999999999982	-10.67888760417479	-1.593161473284001	22.8578820119289	0	0.9399999999999999	0	46.14172890577328	-9.969009209715745	-10.33505329595467	53.66137053622701	0.9365675969898364	0	0	0	46.14172890577328	-9.969009209715745	-10.33505329595467	53.66137053622701	0.9365675969898364	0	0	0	-9.392245789128886	-0.09916230119642326	4.891343549120339	16.94419327067016	-7.526042517798813	4.795450671322969	66.67479093760289	134.0288403113209	0	0	66.88439031605523	17.15823847410634	20.03232266274895	43.91086860838497	85.4733638753345	0	0
12.85999999999981	-10.72175163108029	-1.570581749399257	22.83276954102658	0	0.9399999999999999	0	46.1427388865185	-9.968874872581548	-10.33586502950167	53.66063317243594	0.9365547275638971	0	0	0	46.1427388865185	-9.968874872581548	-10.33586502950167	53.66063317243594	0.9365547275638971	0	0	0	-9.421950091051407	-0.06735755458038532	4.920512844673754	16.96228068286207	-7.581065546992673	4.768718835529719	66.70119678317297	134.0353664732906	0	0	67.0593735930938	17.26337529957734	19.95352019969083	43.67796890434411	85.5559417249822	0	0
12.87999999999981	-10.72119667221334	-1.565121596206686	22.80792780148199	0	0.9399999999999999	0	46.14212606018029	-9.968909580056138	-10.33555492938317	53.66115020636738	0.9365637515083455	0	0	0	46.14212606018029	-9.968909580056138	-10.33555492938317	53.66115020636738	0.9365637515083455	0	0	0	-9.419492244408953	-0.06459630240292012	4.938002712005437	16.8893628588684	-7.603104335349795	4.727361107382465	66.79742171867925	133.9962664308786	0	0	67.05760956986498	17.26607535397066	19.95678932387152	43.51075649788359	85.88061132629234	0	0
12.89999999999981	-10.72894638445799	-1.566406856796671	22.78049063165886	0	0.9399999999999999	0	46.14180315029504	-9.968940068282885	-10.33534336354576	53.66140535051566	0.9365682046138001	0	0	0	46.14180315029504	-9.968940068282885	-10.33534336354576	53.66140535051566	0.9365682046138001	0	0	0	-9.427120444368521	-0.06493909628362968	4.952828182718727	16.85786588874848	-7.568914946817335	4.721392357374574	66.85714593172145	134.0116370745759	0	0	67.14057856249914	17.29407635162829	20.05045139182253	43.29484027230976	86.18940569178324	0	0
12.91999999999981	-10.72696512573407	-1.551227496296241	22.74860185474103	0	0.9399999999999999	0	46.141494245551	-9.968969260330123	-10.33514083352812	53.66164910463235	0.9365724589257015	0	0	0	46.141494245551	-9.968969260330123	-10.33514083352812	53.66164910463235	0.9365724589257015	0	0	0	-9.419609655310337	-0.05261147840102973	4.961827865796498	16.79478921954919	-7.562014051858923	4.768270074290391	66.90418662155136	133.9712302347806	0	0	67.1290290830697	17.31928588541672	20.19345512250563	43.11574017274807	86.46773964956681	0	0
12.93999999999981	-10.73263709175583	-1.540587065871449	22.7500294532207	0	0.9399999999999999	0	46.14025510827356	-9.969069079526538	-10.3343942926726	53.66264607214741	0.9365898592913748	0	0	0	46.14025510827356	-9.969069079526538	-10.3343942926726	53.66264607214741	0.9365898592913748	0	0	0	-9.421686087573265	-0.03828331056190267	4.958774612189409	16.75180698143993	-7.569594282501339	4.795168872109904	66.92248737437028	133.9383327351979	0	0	67.13356464613769	17.3295716768733	20.17200426856093	43.13684703225857	86.46715509059879	0	0
12.95999999999981	-10.72209478284843	-1.514534881907695	22.72847975194892	0	0.9399999999999999	0	46.13998405385342	-9.969094661354863	-10.33421666389946	53.6628597458417	0.9365935886008652	0	0	0	46.13998405385342	-9.969094661354863	-10.33421666389946	53.6628597458417	0.9365935886008652	0	0	0	-9.401698528332263	-0.0223258122802805	4.98575743689514	16.67615379620926	-7.580473215297737	4.785045738924659	66.97060962485921	133.915529951509	0	0	67.0205959033795	17.32494583693147	20.47867848343558	43.12362088644853	86.45457660759863	0	0
12.97999999999981	-10.70249147910334	-1.505959265235445	22.71516155025138	0	0.9399999999999999	0	46.13976693703869	-9.969114797241563	-10.33407599572221	53.66303357476671	0.9365966224879418	0	0	0	46.13976693703869	-9.969114797241563	-10.33407599572221	53.66303357476671	0.9365966224879418	0	0	0	-9.380527757533933	-0.02218859615979753	4.989067463688805	16.63166897627026	-7.548814137440963	4.775490287558536	66.9842416005477	133.9327407268788	0	0	66.88643658712768	17.24716918760638	20.56651831429989	43.26105584213299	86.65881435668646	0	0
12.99999999999981	-10.69327722571396	-1.495995470053414	22.72539311590064	0	0.9399999999999999	0	46.13952829018525	-9.969136522460005	-10.3339232754308	53.66322798900019	0.9366000156564287	0	0	0	46.13952829018525	-9.969136522460005	-10.3339232754308	53.66322798900019	0.9366000156564287	0	0	0	-9.369309004807857	-0.009520367978117044	4.952402540172574	16.59432042043094	-7.503088507462189	4.748161170771603	66.99488249125675	133.9390443249209	0	0	66.74045401268035	17.16899463075629	20.39369043687203	43.51361082145312	86.95269817121952	0	0
13.01999999999981	-10.70062783991673	-1.482961487759291	22.77839129138174	0	0.9399999999999999	0	46.13915549726021	-9.969171472909546	-10.33367998761529	53.66352333718035	0.9366051704546123	0	0	0	46.13915549726021	-9.969171472909546	-10.33367998761529	53.66352333718035	0.9366051704546123	0	0	0	-9.372385854350851	0.01631998014469988	4.892752786273912	16.60511051384823	-7.507294300978204	4.701835347023644	67.01258844185247	133.9439887023783	0	0	66.63760889647564	17.04107912563625	19.99258702787668	44.2783339138858	86.84307775711125	0	0
13.03999999999981	-10.69905634430303	-1.479139367256048	22.82026510663424	0	0.9399999999999999	0	46.138794505961	-9.969205343951367	-10.33344424798757	53.66380894805429	0.936610155304742	0	0	0	46.138794505961	-9.969205343951367	-10.33344424798757	53.66380894805429	0.936610155304742	0	0	0	-9.370825136403777	0.03134773541710005	4.826365788504039	16.61327242164865	-7.492408272978341	4.634406452800722	67.03204192495227	133.9621758946501	0	0	66.4720545657861	16.86235497309228	19.54392687577224	44.89337682915269	86.86779170714941	0	0
13.05999999999981	-10.70834175738881	-1.476193169077798	22.88450375738137	0	0.9399999999999999	0	46.13845070384877	-9.969237589853918	-10.33321975998172	53.66408087557578	0.9366149013353189	0	0	0	46.13845070384877	-9.969237589853918	-10.33321975998172	53.66408087557578	0.9366149013353189	0	0	0	-9.379684270673584	0.05043921849873226	4.755914113224136	16.60051676769823	-7.471240892464651	4.526288563278848	67.05666780603404	133.9973500196312	0	0	66.35700633377432	16.68657996948069	18.97855255260067	45.58122482323171	86.94251222887461	0	0
13.07999999999981	-10.70279862900933	-1.492295834026905	22.97840357503415	0	0.9399999999999999	0	46.13784758012306	-9.96929449420756	-10.33282432396018	53.66455481844564	0.9366231731988641	0	0	0	46.13784758012306	-9.96929449420756	-10.33282432396018	53.66455481844564	0.9366231731988641	0	0	0	-9.382630446068049	0.04823521874843898	4.673772648659107	16.60367580347029	-7.434162899943471	4.419484611040615	67.0852009724603	133.98740699503	0	0	66.20237101426122	16.42534802863862	18.34047361772206	46.43490972653279	87.05219866469812	0	0
13.09999999999981	-10.707368575315	-1.499558247286044	23.08039837704455	0	0.9399999999999999	0	46.137378656932	-9.969338642072129	-10.33251725241906	53.6649236970099	0.9366296113443506	0	0	0	46.137378656932	-9.969338642072129	-10.33251725241906	53.6649236970099	0.9366296113443506	0	0	0	-9.391526528757561	0.05859072869561654	4.588895993098442	16.57460352426943	-7.403400884327185	4.32294108036633	67.12979486047325	134.0219044202859	0	0	66.08996231643654	16.14606922831306	17.61114005009415	47.21717312863399	87.18641607662849	0	0
13.11999999999981	-10.71517785567238	-1.497324883643301	23.18628532277398	0	0.9399999999999999	0	46.13701325891595	-9.969372967221457	-10.33227828974305	53.66521153278763	0.936634635026377	0	0	0	46.13701325891595	-9.969372967221457	-10.33227828974305	53.66521153278763	0.936634635026377	0	0	0	-9.399911378548961	0.08077738144690538	4.495326626330685	16.54508988391301	-7.418147035268367	4.259242326193799	67.16985529418547	134.0487266881054	0	0	65.95583341344597	15.83279791164017	16.79896824455501	48.12815234810388	87.35456290780081	0	0
13.13999999999981	-10.71542164972188	-1.516307009936168	23.32102300869197	0	0.9399999999999999	0	46.1365596082323	-9.969415630613479	-10.3319813463352	53.66556824530302	0.9366408608342537	0	0	0	46.1365596082323	-9.969415630613479	-10.3319813463352	53.66556824530302	0.9366408608342537	0	0	0	-9.409180506043379	0.07730846890540831	4.417543079036036	16.53034024429981	-7.379830417330087	4.150745218842433	67.20193443578606	134.0497411385813	0	0	65.74829093043567	15.49827577868238	16.04973445738534	49.06687046772709	87.42066112595668	0	0
13.15999999999981	-10.72314329562925	-1.531253731047086	23.42732012831278	0	0.9399999999999999	0	46.13622773126824	-9.969446029887781	-10.33176784261006	53.66583554910484	0.9366455261656985	0	0	0	46.13622773126824	-9.969446029887781	-10.33176784261006	53.66583554910484	0.9366455261656985	0	0	0	-9.421379334134768	0.06439109378778381	4.430785338692278	16.51339278140024	-7.384182382923504	3.999689484591192	67.23368792973383	134.0553464521601	0	0	65.78357712910622	15.5514311348821	16.09078685366325	49.61775645794263	87.08311782199856	0	0
